<?xml version="1.0" encoding="UTF-8" standalone="no"?>
<svg
   xmlns:dc="http://purl.org/dc/elements/1.1/"
   xmlns:cc="http://creativecommons.org/ns#"
   xmlns:rdf="http://www.w3.org/1999/02/22-rdf-syntax-ns#"
   xmlns:svg="http://www.w3.org/2000/svg"
   xmlns="http://www.w3.org/2000/svg"
   xmlns:sodipodi="http://sodipodi.sourceforge.net/DTD/sodipodi-0.dtd"
   xmlns:inkscape="http://www.inkscape.org/namespaces/inkscape"
   version="1.0"
   width="599.50122pt"
   height="325.90085pt"
   viewBox="0 0 599.50122 325.90085"
   preserveAspectRatio="xMidYMid meet"
   id="svg8"
   sodipodi:docname="bulllogo.svg"
   inkscape:version="0.92.5 (2060ec1f9f, 2020-04-08)">
  <metadata
     id="metadata14">
    <rdf:RDF>
      <cc:Work
         rdf:about="">
        <dc:format>image/svg+xml</dc:format>
        <dc:type
           rdf:resource="http://purl.org/dc/dcmitype/StillImage" />
        <dc:title></dc:title>
      </cc:Work>
    </rdf:RDF>
  </metadata>
  <defs
     id="defs12" />
  <sodipodi:namedview
     pagecolor="#ffffff"
     bordercolor="#666666"
     borderopacity="1"
     objecttolerance="10"
     gridtolerance="10"
     guidetolerance="10"
     inkscape:pageopacity="0"
     inkscape:pageshadow="2"
     inkscape:window-width="1864"
     inkscape:window-height="1016"
     id="namedview10"
     showgrid="false"
     inkscape:zoom="0.236"
     inkscape:cx="428"
     inkscape:cy="226.66668"
     inkscape:window-x="56"
     inkscape:window-y="1107"
     inkscape:window-maximized="1"
     inkscape:current-layer="svg8" />
  <g
     transform="matrix(0.1,0,0,-0.1,-179,530.90085)"
     id="g6"
     style="fill:#aaaaaa;stroke:none">
    <path
       d="m 4735,5144 c -137,-91 -378,-250 -535,-353 -448,-296 -747,-495 -853,-570 -192,-136 -375,-211 -512,-211 -71,0 -79,2 -106,29 -16,16 -29,38 -29,48 1,45 46,112 136,201 81,80 98,93 117,86 12,-4 47,-8 78,-8 52,-1 61,2 115,44 54,42 191,206 181,217 -8,7 -131,-45 -257,-107 -251,-126 -439,-281 -501,-414 -27,-58 -31,-75 -27,-129 7,-108 72,-164 217,-188 99,-17 290,10 406,57 19,8 19,7 4,-16 -9,-14 -147,-226 -307,-471 l -291,-445 -147,-339 -147,-340 22,-72 c 11,-40 21,-77 21,-83 0,-6 -91,-10 -265,-10 -170,0 -265,-4 -265,-10 0,-7 1007,-10 3001,-10 1997,0 2998,3 2994,10 -4,6 -100,10 -253,10 l -247,1 -315,505 c -173,278 -337,541 -364,584 l -48,79 61,71 c 69,80 67,69 46,245 -8,65 -13,120 -12,121 1,1 48,11 104,22 332,66 486,278 375,515 -32,69 -120,170 -205,235 -51,40 -181,122 -192,122 -4,0 9,-19 28,-42 57,-70 123,-179 146,-241 41,-111 19,-190 -64,-232 -33,-17 -60,-20 -159,-20 h -118 l -299,445 -298,445 -483,192 c -266,106 -487,193 -493,192 -5,0 -122,-74 -260,-165 z m 712,-605 c -31,-33 -72,-93 -93,-132 -31,-60 -38,-84 -42,-147 -5,-96 21,-150 93,-195 46,-29 54,-30 162,-31 131,-1 146,-7 200,-88 40,-59 53,-103 53,-183 v -63 h -122 c -202,0 -352,35 -465,109 -73,48 -107,84 -132,141 -31,71 -35,120 -17,202 36,160 169,320 349,419 28,16 56,29 60,29 5,0 -16,-27 -46,-61 z m 1647,-569 c -40,-73 -114,-126 -229,-163 -52,-17 -217,-48 -223,-42 -2,2 -6,22 -9,44 l -6,41 h 39 c 60,1 183,25 246,50 82,31 160,104 181,171 9,28 18,59 19,68 1,9 3,-15 5,-52 3,-58 0,-74 -23,-117 z M 5542,3435 c -4,-73 -1,-112 13,-161 20,-76 3,-62 257,-203 92,-51 171,-98 176,-104 5,-7 18,-38 30,-70 17,-46 20,-63 11,-79 -20,-38 -5,-106 32,-145 75,-79 84,-81 273,-75 160,5 169,6 197,30 43,35 62,78 68,152 l 6,65 20,-55 c 26,-74 25,-162 -2,-221 l -21,-47 144,-121 c 101,-85 144,-128 144,-142 0,-12 6,-47 14,-78 8,-31 17,-68 20,-83 l 6,-28 h -893 -894 l -94,127 -94,126 35,231 36,231 230,127 c 126,70 232,128 236,130 4,2 0,26 -9,53 -10,34 -16,88 -16,165 -1,96 3,124 21,168 20,47 50,102 57,102 1,0 0,-43 -3,-95 z m 407,-59 c 55,-111 58,-126 29,-126 -36,1 -102,35 -126,65 -30,37 -37,87 -22,152 l 12,55 33,-32 c 19,-18 52,-69 74,-114 z M 4305,2945 c 106,-16 287,-54 303,-64 6,-3 35,-144 66,-312 48,-270 83,-433 102,-483 5,-14 -9,-16 -120,-16 h -126 l -51,69 c -49,68 -53,71 -144,107 l -92,36 -97,207 c -53,113 -96,209 -96,212 0,3 27,63 60,133 43,92 64,126 77,126 10,0 63,-7 118,-15 z m -647,-131 -6,-135 47,-57 c 26,-31 107,-131 181,-222 74,-91 165,-202 202,-247 l 69,-83 h -740 -740 l -31,45 c -17,25 -56,62 -86,82 -30,20 -54,37 -54,38 0,1 40,72 89,156 l 88,154 202,51 201,52 82,73 c 46,40 106,94 133,119 44,41 61,49 140,68 80,20 173,37 214,41 11,1 13,-23 9,-135 z"
       id="path2"
       inkscape:connector-curvature="0" />
    <path
       d="m 5319,4031 c 32,-44 91,-86 159,-111 63,-24 252,-42 252,-25 0,6 -11,27 -25,47 l -25,37 h -108 c -119,-1 -183,15 -242,59 l -35,27 z"
       id="path4"
       inkscape:connector-curvature="0" />
  </g>
</svg>
